Coordinates
version=1
nRows=17
nColumns=36
inDegrees=yes

Units are S.I. units (second, meters, Newtons, ...)
If the header above contains a line with 'inDegrees', this indicates whether rotational values are in degrees (yes) or radians (no).

endheader
time	pelvis_tilt	pelvis_list	pelvis_rotation	pelvis_tx	pelvis_ty	pelvis_tz	hip_flexion_r	hip_adduction_r	hip_rotation_r	knee_angle_r	knee_angle_r_beta	ankle_angle_r	subtalar_angle_r	mtp_angle_r	hip_flexion_l	hip_adduction_l	hip_rotation_l	knee_angle_l	knee_angle_l_beta	ankle_angle_l	subtalar_angle_l	mtp_angle_l	lumbar_extension	lumbar_bending	lumbar_rotation	arm_flex_r	arm_add_r	arm_rot_r	elbow_flex_r	pro_sup_r	arm_flex_l	arm_add_l	arm_rot_l	elbow_flex_l	pro_sup_l
      2.50000000	      2.32595384	      6.37528098	     -4.59655900	      0.72881044	      0.97040318	     -0.10217190	     -5.44535338	      2.41824357	      0.58953396	      0.88725002	      0.01548543	     10.84047279	    -13.50032290	     -7.49999987	     13.03815648	     -0.11899416	     -3.03707659	      2.20945157	      0.03856220	      5.61740668	    -10.46798597	     -7.49999987	     -7.91012183	     -1.75632591	      2.01317360	     50.06466755	     11.23665390	     70.04397249	    114.76107222	    101.23001770	     34.47321831	      6.91601683	     34.35426199	    110.86051159	     84.02731434
      2.51666670	      2.34456980	      6.39241757	     -4.69571771	      0.72929927	      0.97034621	     -0.10211526	     -5.49039257	      2.36726610	      0.55286623	      0.87929144	      0.01534653	     10.76835949	    -13.49627495	     -7.49999987	     12.90322780	     -0.08577246	     -2.99314070	      2.15470677	      0.03760673	      5.87815443	    -10.26471881	     -7.49999987	     -7.77608082	     -1.78757427	      2.18727103	     49.98636294	     11.26452501	     70.41588929	    114.84788385	    101.69902202	     33.92213255	      7.34036825	     32.33672972	    110.51739137	     83.17697525
      2.53333330	      2.37033412	      6.42370962	     -4.76019494	      0.72871873	      0.97050138	     -0.10187490	     -5.50787527	      2.32921158	      0.47408564	      0.87343522	      0.01524432	     10.76997599	    -13.40522181	     -7.49999987	     12.83212957	     -0.07086535	     -2.96877517	      2.15101339	      0.03754227	      5.94511055	    -10.19143176	     -7.49999987	     -7.71093128	     -1.81788920	      2.41011611	     49.96072491	     11.26230415	     70.70253501	    114.99880299	    101.93275113	     33.56962254	      7.77241331	     31.31546712	    110.24361358	     82.49611738
      2.55000000	      2.33115897	      6.44260244	     -4.74450522	      0.72929743	      0.97043202	     -0.10190798	     -5.47868617	      2.31376064	      0.39396514	      0.86143883	      0.01503494	     10.63224834	    -13.48514033	     -7.49999987	     12.87583538	     -0.06097858	     -2.79458489	      2.21190536	      0.03860503	      5.94151968	    -10.27397524	     -7.49999987	     -7.50256406	     -1.81587494	      2.56268206	     49.94802554	     11.23116978	     70.95718900	    115.06934145	    101.90268378	     33.28713145	      8.12330757	     30.72722214	    109.69445940	     82.17138753
      2.56666670	      2.41598040	      6.41867188	     -4.78529177	      0.72882451	      0.97060563	     -0.10185799	     -5.55103071	      2.33195346	      0.03782354	      0.90791485	      0.01584610	     10.79894588	    -13.03951280	     -7.49999987	     12.75843164	     -0.09612080	     -2.58233303	      2.21536928	      0.03866549	      5.85464955	    -10.45185530	     -7.49999987	     -7.55950634	     -1.70724319	      2.66068294	     50.27165810	     11.36579500	     71.53159065	    114.81545872	     93.59234101	     33.20135519	      8.37398909	     30.82843313	    109.56571557	     76.84157146
      2.58333330	      2.29861671	      6.37813052	     -4.89258438	      0.72949278	      0.97036382	     -0.10183525	     -5.40918984	      2.38564557	      0.26873101	      0.91836583	      0.01602851	     10.55907014	    -13.31475109	     -7.49999987	     12.81044789	     -0.17464329	     -2.78917740	      2.14596319	      0.03745412	      6.16128298	    -10.06239092	     -7.49999987	     -7.36563463	     -1.63320814	      2.80403722	     50.19040016	     11.36148130	     71.26272067	    115.12639069	    102.29282019	     33.06975297	      8.76272352	     30.41218837	    109.47657852	     81.24361950
      2.60000000	      2.28853954	      6.40186020	     -4.91921697	      0.72895622	      0.97040359	     -0.10173502	     -5.38984723	      2.37868783	      0.18017665	      0.92775529	      0.01619238	     10.51986444	    -13.29894854	     -7.49999987	     12.81901095	     -0.14026941	     -2.88646929	      2.04752101	      0.03573598	      6.17376386	     -9.97328969	     -7.49999987	     -7.35058151	     -1.66004649	      2.77822265	     50.28056268	     11.45755629	     71.27044029	    115.35786377	    102.47798343	     33.11299593	      9.02425834	     30.63219686	    109.34751319	     80.75098056
      2.61666670	      2.29205827	      6.43069996	     -4.94848660	      0.72944777	      0.97008026	     -0.10175750	     -5.40245830	      2.36410766	      0.14529584	      0.92353199	      0.01611867	     10.56514216	    -13.16025277	     -7.49999987	     12.81933094	     -0.10966818	     -2.93593513	      2.00911027	      0.03506559	      6.14692140	    -10.05119871	     -7.49999987	     -7.30392647	     -1.65621573	      2.88379332	     50.30432071	     11.39033381	     71.28221589	    115.44834513	    102.39632763	     33.07542719	      9.17275192	     30.73110820	    109.24817207	     80.83865094
      2.63333330	      2.25457096	      6.38396392	     -4.95436118	      0.72913640	      0.96783996	     -0.10190357	     -5.31384197	      2.46354695	      0.15686278	      0.93376974	      0.01629736	     10.67022989	    -13.11337726	     -7.49999987	     12.84651197	     -0.16857863	     -2.99198406	      1.96182335	      0.03424028	      6.32327879	     -9.94593007	     -7.49999987	     -7.27409602	     -1.56760190	      2.91499044	     50.49368790	     11.47619888	     71.28504099	    115.53127974	    102.42193846	     33.13451296	      9.21968090	     30.85549842	    109.36153482	     80.82283912
      2.65000000	      2.21708784	      6.29910255	     -4.93650428	      0.72614970	      0.96951317	     -0.10470037	     -5.16115078	      2.54607218	      0.20781403	      0.96191809	      0.01678864	     10.78571574	    -13.13049423	     -7.49999987	     12.97667068	     -0.19271433	     -3.05981038	      1.94806746	      0.03400019	      6.51038108	     -9.76173043	     -7.49999987	     -7.37480356	     -1.35843962	      2.90741322	     50.80645438	     11.35257910	     71.31391680	    115.64298068	    102.25231194	     33.45080051	      9.41805131	     30.89613929	    108.97799095	     80.69900511
      2.66666670	      2.21336233	      6.23638931	     -4.83093612	      0.72581129	      0.96928811	     -0.10482126	     -5.03551346	      2.57272986	      0.21072319	      1.01041587	      0.01763508	     10.86849057	    -13.05679085	     -7.49999987	     13.09384672	     -0.20953761	     -2.92659428	      2.04758393	      0.03573708	      6.50620667	     -9.79203197	     -7.49999987	     -7.52129642	     -1.15992368	      2.78468829	     51.16995771	     11.38808209	     71.27491558	    115.37093507	    102.60467251	     33.61318687	      9.46452261	     30.96136523	    109.22423087	     80.45759745
      2.68333330	      2.24672921	      6.18509641	     -4.77443853	      0.72974951	      0.96933903	     -0.10234744	     -5.06397944	      2.63848400	      0.20903989	      1.00666032	      0.01756954	     10.84477658	    -13.00112302	     -7.49999987	     13.00381712	     -0.28324686	     -2.93060944	      2.08644305	      0.03641530	      6.57428604	     -9.71376340	     -7.49999987	     -7.48593820	     -1.03296356	      2.86797110	     51.26550089	     11.68785324	     71.77064138	    115.02196785	    102.55124024	     33.24589416	      9.96200356	     36.16775091	    111.60923891	     80.84738214
      2.70000000	      2.08896367	      6.03359286	     -4.67295380	      0.72613902	      0.96859357	     -0.10529334	     -4.87028514	      2.77283042	      0.19442139	      1.01840186	      0.01777447	     10.94430198	    -12.84185520	     -7.49999987	     13.22818835	     -0.41124540	     -2.88173458	      2.13557641	      0.03727284	      6.63650719	     -9.64759777	     -7.49999987	     -7.23862547	     -0.48504199	      2.95432194	     51.72616371	     12.03422064	     72.63851914	    114.49558925	    102.39953267	     33.21379730	     11.42673999	     46.65095202	    114.17887654	     81.60503249
      2.71666670	      2.15890377	      5.91919607	     -4.60312682	      0.72630041	      0.97017609	     -0.10568298	     -4.92051621	      2.83497480	      0.27503730	      1.03329834	      0.01803446	     10.96670793	    -12.78586624	     -7.49999987	     13.19526005	     -0.49160377	     -2.75943854	      2.21702063	      0.03869431	      6.54641824	     -9.73474041	     -7.49999987	     -7.22753664	     -0.36012251	      3.72086185	     51.70666459	     11.43657643	     72.47208261	    115.14676699	    100.46130733	     34.55120522	     13.20052105	     56.68428157	    114.19494091	     84.84127904
      2.73333330	      2.12721004	      5.84691552	     -4.55933353	      0.72948637	      0.96857045	     -0.10320723	     -4.95797557	      2.92162644	      0.32716623	      1.02646360	      0.01791517	     11.03791194	    -12.68393094	     -7.49999987	     13.18658188	     -0.61174710	     -2.76486008	      2.29281845	      0.04001723	      6.49746173	     -9.70495836	     -7.49999987	     -6.98374714	     -0.18429535	      4.07821993	     51.45782360	     11.17568578	     72.43135317	    115.11219115	    100.05184048	     35.68324678	     14.37711188	     64.32398027	    114.60021432	     85.27311352
      2.75000000	      2.02919954	      5.72292738	     -4.59608391	      0.72668847	      0.96787054	     -0.10609859	     -4.79306587	      3.02666656	      0.34814373	      1.13486118	      0.01980706	     11.07924212	    -12.67662519	     -7.49999987	     13.33830895	     -0.72871710	     -2.73891214	      2.37649311	      0.04147763	      6.61203931	     -9.73073938	     -7.49999987	     -6.91306290	      0.12904041	      4.05653172	     51.11129070	     10.61327211	     71.96444403	    115.09414238	     99.57831404	     36.98446051	     15.05004478	     69.19712683	    114.44807557	     85.33821737
      2.76666670	      2.05378641	      5.66221938	     -4.56968237	      0.72622140	      0.96810640	     -0.10615769	     -4.76858265	      3.07535134	      0.36767008	      1.13454019	      0.01980146	     11.08243168	    -12.73052414	     -7.49999987	     13.37655945	     -0.79064682	     -2.63757514	      2.40508490	      0.04197665	      6.54888566	     -9.81580178	     -7.49999987	     -7.12658235	      0.19082897	      3.70116320	     50.63359825	     10.06875104	     71.00100180	    114.95611990	     97.35940521	     38.10940869	     13.88165359	     69.49483505	    114.70113188	     83.07174306
